# xmcd CD database file
#
# Track frame offsets:
#	150
#	17367
#	34049
#	51305
#	68546
#	85027
#	101989
#	120846
#	143016
#	161335
#
# Disc length: 2383 seconds
#
# Revision: 0
# Processed by: cddbd v1.5.1PL0 Copyright (c) Steve Scherf et al.
# Submitted via: CDex 1.51
#
DISCID=6f094d0a
DTITLE=Sonny Stitt - It's Magic
DYEAR=1969
DGENRE=Jazz
TTITLE0=Four
TTITLE1=On Green Dolphine Street
TTITLE2=Parker's Mood
TTITLE3=How High The Moon
TTITLE4=Shake Your Head
TTITLE5=It's Magic
TTITLE6=Getting Sentimental Over You
TTITLE7=Just Friends
TTITLE8=Body And Soul
TTITLE9=They Can't Take That Away From Me
EXTD=YEAR: 1969
EXTT0=
EXTT1=
EXTT2=
EXTT3=
EXTT4=
EXTT5=
EXTT6=
EXTT7=
EXTT8=
EXTT9=
PLAYORDER=
